<?xml version="1.0" encoding="utf-8"?>
<!-- Generator: Adobe Illustrator 23.0.3, SVG Export Plug-In . SVG Version: 6.00 Build 0)  -->
<svg version="1.1" id="Layer_1" xmlns="http://www.w3.org/2000/svg" xmlns:xlink="http://www.w3.org/1999/xlink" x="0px" y="0px"
	 viewBox="0 0 332.16 258.97" style="enable-background:new 0 0 332.16 258.97;" xml:space="preserve">
<style type="text/css">
	.st0{fill:#FFFFFF;}
</style>
<path fill: white; class="st0" d="M72.77,80.94l-9.96-7.03c-48.61,44.41-29.55,75.86-29.55,75.86l10.85-8.33l7.22-5.13l4.53-8.94l2.56-5.21
	l2.38-9.92l-1.25-3.63l-3.06-3.13l6.38-1l5-1.75l4.38-4l2.44-4.5v-7.13L72.77,80.94z M54.09,120.44l-3.29,4.75l-4.71,4.34
	l-3.36,5.85l-5.63,0.94v-6.44l1.81-6.26v-6.36l3.41-6.04l0.84-5.46l6.75,0.88l3.47,2.55l1.22,6.2L54.09,120.44z M66.74,95.81
	l-5.44,3.38l-6.19,1.69h-4.13l-3-2.69l5.69-6.81l10.75-8.94l3.81,6.38l0.63,2.97L66.74,95.81z"/>
<polygon class="st0" points="76.02,79.87 79.57,78.15 83.43,84.5 84.55,88.25 84.55,94.69 79.68,105.38 74.68,110.94 73.12,117.31 
	65.37,129.94 66.93,133.06 71.84,131.17 77.17,125.93 81.74,117.69 86.87,108.13 89.37,100.34 89.37,87.13 84.28,76.19 87.87,74.12 
	94.47,84.19 95.08,101.94 90.52,116 83,128.58 78.07,134.02 70.99,139.69 60.18,138.38 57.8,131.75 60.55,127.69 63.37,120.44 
	66.62,116.69 71.88,104.56 75.93,101.38 78.84,93.58 79.24,86.88 "/>
<polygon class="st0" points="110.78,80.47 103.46,69.63 95.96,72.25 93.86,75.5 97.72,81.93 99.11,95.75 106.09,102.55 107.8,108.2 
	108.09,119 105.75,125.08 99.11,123.08 94.4,119.31 91.14,123.61 98.64,128.41 106.55,131.75 110.02,129.67 112.3,124.34 
	113.84,115.92 112.99,107.83 111.2,98.68 107.8,94.08 103.64,91.08 103.47,83.21 99.8,76.58 103.3,75.12 107.32,80.79 "/>
<path class="st0" d="M113.55,80.79l19.77-6.22c0,0-1.95,4.54-0.74,6.64l-2.2,1.23l-2.86,0.5l-2.05,2.29l0.75,3.86l-1.33,5.63
	l-2.25,3.54l2.75,4.95l-1.95,9.14l1.28,7.9l-6.44,5.7l-0.22-6.35l2-13.83l-2.97-6.94l1.57-5.06l2.31-5.75l-1.16-2.77l-3.84,1.21
	l-3.56,2.81l-2.38-4.38L113.55,80.79z"/>
<polygon class="st0" points="131.64,85.63 129.22,90.04 129.8,97.24 128.22,104.55 128.55,112.33 131.64,117 145.05,119 
	145.05,116.92 146.26,113.84 144.48,112.67 140.93,113.5 136.39,112.75 134.05,109.18 133.89,104.83 136.72,103.2 141.61,101.83 
	144.12,102.76 144.35,100.25 143.03,98.02 140.22,97.9 137.14,99.25 133.89,99.33 135.17,94.29 134.97,90.04 140.24,90.74 
	143.22,90.74 142.29,86.92 "/>
<path class="st0" d="M161.29,87.61l-1.81-1.69h-3l-3.64-1.56l-6.57,1.56l-1.58,5.95l2.59,5.62v6.21l2.03,5.04l1.28,5.31l-0.15,4.53
	l3.24-0.34l10.72-8.25l2.26-5.5L161.29,87.61z M157.97,110l-1.92,1l-2.5-1l0.46-3.09l-2.32-5.82v-4.33l-1.47-3.17l-0.29-3.84
	l4.48-0.23l2.63,2.65l2.07,3.83l0.26,6.05l2.08,2.45L157.97,110z"/>
<path class="st0" d="M62.77,185.74c0,0-18.71-8.65-27.63-30.7l17.91-11.01h2.67l-1.1,6.36l-3.55,2.93l-7.26,3.42l2.06,3.83l4.77-2.3
	l6.58-0.95l0.58,2.36l-1.75,2.56l-7.5,4.08l4.85,5.33l5.99,4.92l3.38,6V185.74z"/>
<polygon class="st0" points="60.34,151.78 58.9,147.47 60.89,144.42 64.3,144.75 67.72,144.03 66.97,147 67.72,151 "/>
<polygon class="st0" points="61.75,156.5 64.89,154.25 68.97,154.25 68.24,161.25 72.59,167.83 74.28,181.5 69.98,183.36 
	67.22,176.68 66.64,168.8 62.77,164.89 "/>
<polygon class="st0" points="78.67,179.62 81.14,177.95 85.44,177.78 80.97,170.24 80.72,161.74 77.57,152.15 83.08,158.28 
	85.44,168.8 88.77,177.18 93.7,181.5 98.06,179.76 99.11,169.5 98.22,160.83 92.84,151.83 89.64,143 87.85,134.43 81.81,138.61 
	87.65,149.48 93.55,159.69 94.47,173.72 91.8,172.65 87.65,158.28 78.01,143.97 77.02,141.55 74.68,143.52 72.47,143.52 
	72.47,152.15 75.89,162.5 75.87,170.93 "/>
<polygon class="st0" points="91.14,132.3 93.86,130.42 104.05,135.33 112.51,134.88 114.22,138.08 114.22,143.52 117.22,147.25 
	113.39,149.17 109.59,144.03 108.89,139.69 104.18,140.56 102.06,139.08 99.11,140.17 100.64,146.42 105.14,151 107.8,160.58 
	107.64,172.65 111.64,173.25 117.22,171.42 115.59,166.83 117.22,161.42 115.22,158.28 110.89,159 110.97,155.65 116.3,153.42 
	119.97,154.25 121.52,158.92 120.41,163.89 122.16,171.08 120.05,177.92 102.97,177.62 102.51,159.69 95.98,149.42 95.08,142.58 
	93.86,137.58 "/>
<polygon class="st0" points="116.42,134.43 129.89,121.57 131.14,127.5 129.8,130.42 126.55,132.3 123.75,134.43 122.89,140.08 
	124.89,145.17 132.5,142.12 133.99,144.54 133.99,149 128.03,149.76 130.55,155.04 130.39,164.57 133.33,163.89 136.55,161.75 
	139.15,167.84 125.91,175.35 127.42,169.3 124.25,163.92 125.5,157.97 122.92,153.5 122.5,148.83 118.67,143.08 117.76,137.55 "/>
<path class="st0" d="M153.8,141.11l-3.92-4.11l3.92-2.57l0.62-3.42l-1.7-6.92l-18.83-2.92l1.26,8.4l-1.19,7.38l4.25,6.88
	l-0.19,11.69l3.37,11.06l3.52-2l-2.28-10.7l1.13-5.43l-1.18-5.1l3.68-3.65l3.62,4.29l0.34,13.99l-2.95,8.04l4.61,2.8l2.92-9.11
	L153.8,141.11z M146.26,134.88l-4.64,2.71l-2.46-5.83l0.65-5.5l3.95,2.09l4.92,0.01l0.41,3.11L146.26,134.88z"/>
<polygon class="st0" points="156.49,122 158.15,123.99 158.42,127.16 163.13,126.53 169.21,124.18 175.04,123.39 172.25,128.05 
	168.7,131.92 163.13,133.02 165.27,138.2 161.47,145.67 157.83,153.17 158.89,157.59 165.4,161.19 176.02,159.53 179.46,157.97 
	181.93,153.33 172.75,153.17 165.55,154.66 166.29,149.07 170.34,142.12 176.33,138.97 174.21,135.67 179.59,128.05 181.93,121.57 
	179.51,116.63 166.2,119 "/>
<path class="st0" d="M174.62,164.18l-8.7,1.49l-7.24-3.77l-0.85,7.45c0,0,0.57-1.97,15.1,2.31l4.01-1.26L174.62,164.18z"/>
<path class="st0" d="M69.61,67.57c0,0,12.4-16.4,29.5-15.76c11.64,0.44,21.2-4.84,21.2-4.84l15.13,11.97l-0.53,10.29l-21.22,4.67
	l-9.61-9.6l-27.55,9.6L69.61,67.57z"/>
<path class="st0" d="M128.42,40.5c0,0,6.67-5.5,16.26-6.1c5.09-0.32,10.63-6.31,10.63-6.31l9.89,21.81c0,0-6.62,7.19-22.2,14.39
	l-1.52-1.28l2.59-5.52l-5.49-9.54L128.42,40.5z"/>
<polygon class="st0" points="166.2,76.83 173.67,95.09 172.48,99.61 173.79,103.27 197.66,97.59 191.75,83.69 190.66,72.34 "/>
<polygon class="st0" points="236.52,110.62 260.31,111.3 266.04,124.14 258.69,135.52 233.92,136.16 230.35,125.59 "/>
<polygon class="st0" points="229.26,137.96 226.44,132.96 225.26,124.02 224.96,121.75 226.58,118.79 229.21,114.08 229.14,114.08 
	229.15,114.06 224.95,114.22 207.94,114.81 207.97,114.87 207.84,114.88 208.95,117.04 207.56,122.01 206.7,124.29 203.94,115.14 
	203.92,115.14 203.9,115.06 195.09,115.69 184.47,116.34 184.51,116.43 184.46,116.44 193.65,142.12 230.84,140.69 "/>
<polygon class="st0" points="193.06,151.13 182.39,164.09 187.13,173.75 205.33,177.24 213.61,169.64 206.46,155.93 207.61,153.57 
	"/>
<path class="st0" d="M246.03,186.29c-12.71-0.46-14.06-0.37-17.24-0.62c-3.16-0.24-9.69-1-15.72-1.8l8.54-8.23l-5.64-15.03
	c2.57,0.5,4.55,0.88,5.22,0.97c1.51,0.2,8.07,1.46,13.7,2.02c0.93,0.1,2.15,0.23,3.51,0.39L246.03,186.29z"/>
<path class="st0" d="M262.62,172.67"/>
<path class="st0" d="M267.76,174.77c0.83-1.68,0.94-3.72,0.95-5.97c0.04-8.31-12.17-9.2-14.77-9.8c-1.46-0.34-5.54-0.91-9.63-1.42
	l7.84,21.88c4.9,0.13,8.35-0.24,10.78-1l-0.31-5.8L267.76,174.77z"/>
<path class="st0" d="M179.39,202.01l2.76,9.57c-5.41-1.25-11.44-2.59-13.23-3.16c-0.62-0.2-2.2-0.67-4.45-1.28l-3.69-8.97
	l4.97-14.71c3.3,1.54,7.52,3.27,12.23,4.78c1.89,0.6,4.94,1.68,8.05,2.81l1.61,3.54L179.39,202.01z"/>
<path class="st0" d="M205.56,215.28c-4.59-0.95-9.07-2.07-11.06-2.66c-1.16-0.33-3-0.79-5.15-1.29v-0.01l-2.96-7.23l11-7.5
	l-2.3-4.68c2.18,0.81,4.02,1.52,5.03,1.93c3.05,1.24,6.65,2.26,10.14,3.21v0.01l1.6,3.58l-7.75,12L205.56,215.28z"/>
<path class="st0" d="M217.26,212.64c-0.25-0.03-0.5-0.07-0.76-0.1l-2.89-7.9l5-3.5v-6.9c1.95,0.55,3.78,1.1,5.34,1.68
	c6.48,2.41,13.35,4.65,10.87,11.99C232.33,215.25,223.39,213.44,217.26,212.64z"/>
<path class="st0" d="M69.35,188.92c0,0,22.3,8.53,74.6,9.23c0,0,7.11-0.47,11.04,2.11l1.38-10.61l5.46-10.02l-19.94-10.32
	l-15.87,11.18l-21.77,1.02l-10.97,6.18l-9.56-5.31L69.35,188.92z"/>
<polygon class="st0" points="169.17,40.9 179.51,38.98 177.5,34.2 171.44,31.85 167.89,38.3 "/>
<path class="st0" d="M180.68,29.99c-1.19-1.8-3.07-3.04-5.45-3.57c-2.7-0.61-5.4,0.16-8.79,2.49l-2.68,3.24l1.93,3.92l4.4-7.97
	l9.12,3.54L180.68,29.99z"/>
<path class="st0" d="M180.32,41.88l-10.8,2.01l3.7,7.54C176.45,48.2,178.83,45,180.32,41.88z"/>
<polygon class="st0" points="253.11,62.03 245.04,62.26 241.58,66.56 240.47,74.46 242,79.26 248.34,82.12 250.77,81.53 
	249.02,70.96 "/>
<path class="st0" d="M263.86,77.43l-4.78-10.06l-3.9-2.67l-3.05,6.67l1.72,10.39C258.11,80.52,261.48,79.06,263.86,77.43z"/>
<path class="st0" d="M261.58,62.24l3.69,11.54l2.98-3.35c-0.03-0.69-0.16-1.41-0.4-2.14l0,0C266.92,65.45,264.86,63.47,261.58,62.24
	z"/>
<path class="st0" d="M241.71,61.62c-3.12,0.44-6.06,0.98-8.53,1.44l4.67,8.5l0.87-6.23L241.71,61.62z"/>
<path class="st0" d="M238.62,84.89c1.66-0.26,3.84-0.59,6.25-1.04l-5.33-2.4l-1.31-4.12l-3.8,8.33c0.53-0.12,1.03-0.22,1.47-0.32
	C236.49,85.22,237.43,85.07,238.62,84.89z"/>
<polygon class="st0" points="221.48,75.81 220.13,73.5 221.13,70.65 211.88,72.1 213.76,73.51 212.42,80.44 215.14,85.97 
	218.18,85.54 217.44,79.76 "/>
<polygon class="st0" points="209.29,80.86 210.46,74.78 208.11,73.01 206.71,73.96 208.82,75.81 206.36,81.78 209.14,86.45 
	207.46,95.71 212.03,94.6 212.74,87.88 "/>
<path class="st0" d="M224.7,92.46l-1.5-5.02l6.52-6.44l-5.71-9.52l-0.59,1.7l1.84,3.14l-4.65,4.55l0.93,7.23l-5.89,0.84l-0.62,5.95
	C217.97,94.14,221.43,93.27,224.7,92.46z"/>
<polygon class="st0" points="203.02,82.02 205.23,76.65 203.38,75.02 198.26,78.52 204.68,94.22 205.98,87.02 "/>
<polygon class="st0" points="283.59,124.9 287.24,123.76 287.27,121.97 283.89,116.34 274.29,118.8 274.29,120.96 278.77,119.91 "/>
<polygon class="st0" points="277.8,123.22 274.29,124.04 274.29,128.37 275.08,130.55 277.29,126.78 280.35,125.87 "/>
<path class="st0" d="M285.76,129.19c0.88-0.74,1.54-1.56,1.95-2.44l-1.77,0.55l0.03,0.03l-3.24,0.98l-0.01-0.01l-3.43,1.02
	l-2.17,3.7C281,132.04,283.9,130.75,285.76,129.19z"/>
<path class="st0" d="M271.76,112.29c-0.29-0.03-0.6-0.05-0.92-0.08l1.79,3.91l9.15-2.35c-2.78-1-5.94-1.21-8.35-1.36
	C272.83,112.38,272.27,112.34,271.76,112.29z"/>
<path class="st0" d="M273.1,133.86l-1.4-3.84l-3.3,2.31l0.77,2.11C270.54,134.27,271.86,134.07,273.1,133.86z"/>
</svg>
